<svg fill="#ffffff" height="200px" width="200px" version="1.1" id="Layer_1" xmlns="http://www.w3.org/2000/svg" xmlns:xlink="http://www.w3.org/1999/xlink" viewBox="0 0 512.001 512.001" xml:space="preserve"><g id="SVGRepo_bgCarrier" stroke-width="0"></g><g id="SVGRepo_tracerCarrier" stroke-linecap="round" stroke-linejoin="round"></g><g id="SVGRepo_iconCarrier"> <g> <g> <path d="M406.473,0H106.858c-7.355,0-13.982,5.305-13.982,12.66v486.025c0,4.758,2.871,9.155,6.992,11.533 c2.06,1.189,4.525,1.783,6.823,1.783c2.3,0,4.683-0.595,6.743-1.786l143.337-82.766l143.012,82.727 c4.12,2.384,8.877,2.386,12.999,0.009c4.123-2.378,6.341-6.775,6.341-11.536V12.66C419.124,5.305,413.828,0,406.473,0z M172.773,26.632h166.453v356.577l-76.05-44.191c-4.123-2.385-9.372-2.388-13.495-0.004l-76.908,44.326V26.632z M392.493,475.563 h-0.001l-129.337-75.02c-4.123-2.385-9.372-2.388-13.495-0.004l-130.15,75.077V26.632h26.633v379.775 c0,4.758,2.871,9.155,6.992,11.533c2.06,1.189,4.525,1.783,6.823,1.783c2.3,0,4.683-0.595,6.743-1.786l90.094-52.013 l89.725,51.899c4.12,2.384,8.877,2.386,12.999,0.009c4.123-2.378,6.341-6.775,6.341-11.536V26.632h26.633V475.563z"></path> </g> </g> </g></svg>